<svg width="64" height="27" viewBox="0 0 64 27" fill="none" xmlns="http://www.w3.org/2000/svg">
<path d="M2.20698 2.67074V6.70709H3.01425C3.78406 6.70709 4.25329 6.36905 4.25329 5.31785V4.02234C4.25329 3.08369 3.93426 2.67074 3.20209 2.67074H2.20698ZM4.45977 13.9351C4.34721 13.5972 4.27211 13.3907 4.27211 12.3205V10.2552C4.27211 9.03498 3.85916 8.58457 2.92033 8.58457H2.20698V13.9351H0.141846V0.793262H3.25837C5.3986 0.793262 6.31843 1.78837 6.31843 3.81586V4.84843C6.31843 6.20022 5.88665 7.08258 4.96683 7.51436C5.99939 7.94613 6.33725 8.94106 6.33725 10.3117V12.3392C6.33725 12.9774 6.35607 13.4468 6.56255 13.9351H4.45977Z" fill="white"/>
<path d="M9.58535 10.9126C9.58535 11.8513 9.99831 12.2082 10.6554 12.2082C11.3124 12.2082 11.7256 11.8513 11.7256 10.9126V3.81606C11.7256 2.87741 11.3124 2.52073 10.6554 2.52073C9.99831 2.52073 9.58535 2.87741 9.58535 3.81606V10.9126ZM7.52022 3.94743C7.52022 1.84466 8.62788 0.643255 10.6554 0.643255C12.6831 0.643255 13.7907 1.84466 13.7907 3.94743V10.7811C13.7907 12.884 12.6831 14.0854 10.6554 14.0854C8.62788 14.0854 7.52022 12.884 7.52022 10.7811V3.94743Z" fill="white"/>
<path d="M16.776 9.57949L14.1664 0.793445H16.3254L17.9023 6.78237L19.4794 0.793445H21.4506L18.8411 9.57949V13.9351H16.776V9.57949Z" fill="white"/>
<path d="M23.3283 9.76715H25.3183L24.3234 3.12115L23.3283 9.76715ZM28.0407 13.9351H25.9568L25.6001 11.5507H23.0656L22.7089 13.9351H20.8126L22.9154 0.793262H25.938L28.0407 13.9351Z" fill="white"/>
<path d="M28.9984 0.793262H31.0635V12.0576H34.4616V13.9351H28.9984V0.793262Z" fill="white"/>
<path d="M40.9762 8.69712L40.3379 9.89871V13.9351H38.273V0.793262H40.3379V6.51925L43.0413 0.793262H45.1066L42.234 6.65063L45.1066 13.9351H42.9852L40.9762 8.69712Z" fill="white"/>
<path d="M46.0454 0.793262H48.1104V13.9351H46.0454V0.793262Z" fill="white"/>
<path d="M51.4521 4.41666V13.9351H49.5935V0.793262H52.1843L54.3057 8.65948V0.793262H56.1457V13.9351H54.0241L51.4521 4.41666Z" fill="white"/>
<path d="M60.7265 6.61336H63.6178V10.7811C63.6178 12.8839 62.5666 14.0854 60.5389 14.0854C58.5112 14.0854 57.46 12.8839 57.46 10.7811V3.94743C57.46 1.84466 58.5112 0.643255 60.5389 0.643255C62.5666 0.643255 63.6178 1.84466 63.6178 3.94743V5.22412H61.6654V3.81606C61.6654 2.87741 61.2524 2.52055 60.5952 2.52055C59.9383 2.52055 59.525 2.87741 59.525 3.81606V10.9126C59.525 11.8513 59.9383 12.1893 60.5952 12.1893C61.2524 12.1893 61.6654 11.8513 61.6654 10.9126V8.49084H60.7265V6.61336Z" fill="white"/>
<path d="M1.50699 19.6405V22.443H2.122C2.53587 22.443 2.76043 22.2538 2.76043 21.6626V20.4208C2.76043 19.8296 2.53587 19.6405 2.122 19.6405H1.50699ZM4.06129 20.5038V21.58C4.06129 22.9042 3.42267 23.6257 2.122 23.6257H1.50699V26.7356H0.206322V18.4579H2.122C3.42267 18.4579 4.06129 19.1794 4.06129 20.5038Z" fill="white"/>
<path d="M8.38914 19.6405V22.1828H8.89767C9.38259 22.1828 9.67818 21.97 9.67818 21.3078V20.4918C9.67818 19.9007 9.47706 19.6405 9.01595 19.6405H8.38914ZM9.80809 26.7356C9.73723 26.5228 9.68999 26.3928 9.68999 25.7185V24.418C9.68999 23.6493 9.42982 23.3654 8.83862 23.3654H8.38914V26.7356H7.08846V18.4579H9.05137C10.3995 18.4579 10.9789 19.0847 10.9789 20.3618V21.0124C10.9789 21.8636 10.7071 22.4195 10.1275 22.6913C10.7779 22.9635 10.9909 23.5901 10.9909 24.4533V25.7305C10.9909 26.1326 11.0027 26.4282 11.1326 26.7356H9.80809Z" fill="white"/>
<path d="M15.4015 24.8316C15.4015 25.4229 15.6617 25.6475 16.0756 25.6475C16.4894 25.6475 16.7496 25.4229 16.7496 24.8316V20.3616C16.7496 19.7704 16.4894 19.5458 16.0756 19.5458C15.6617 19.5458 15.4015 19.7704 15.4015 20.3616V24.8316ZM14.1008 20.4446C14.1008 19.1201 14.7985 18.3632 16.0756 18.3632C17.3528 18.3632 18.0503 19.1201 18.0503 20.4446V24.7489C18.0503 26.0732 17.3528 26.8301 16.0756 26.8301C14.7985 26.8301 14.1008 26.0732 14.1008 24.7489V20.4446Z" fill="white"/>
<path d="M22.5558 19.6405V22.443H23.1707C23.5845 22.443 23.8093 22.2538 23.8093 21.6626V20.4208C23.8093 19.8296 23.5845 19.6405 23.1707 19.6405H22.5558ZM25.1101 20.5038V21.58C25.1101 22.9042 24.4715 23.6257 23.1707 23.6257H22.5558V26.7356H21.255V18.4579H23.1707C24.4715 18.4579 25.1101 19.1794 25.1101 20.5038Z" fill="white"/>
<path d="M29.438 21.9464H31.2236V23.1288H29.438V25.5532H31.6847V26.7356H28.1371V18.4579H31.6847V19.6405H29.438V21.9464Z" fill="white"/>
<path d="M36.1547 19.6405V22.1828H36.6633C37.148 22.1828 37.4436 21.97 37.4436 21.3078V20.4918C37.4436 19.9007 37.2426 19.6405 36.7813 19.6405H36.1547ZM37.5737 26.7356C37.5028 26.5228 37.4554 26.3928 37.4554 25.7185V24.418C37.4554 23.6493 37.1954 23.3654 36.6042 23.3654H36.1547V26.7356H34.8539V18.4579H36.817C38.1651 18.4579 38.7444 19.0847 38.7444 20.3618V21.0124C38.7444 21.8636 38.4725 22.4195 37.8931 22.6913C38.5433 22.9635 38.7563 23.5901 38.7563 24.4533V25.7305C38.7563 26.1326 38.7681 26.4282 38.8981 26.7356H37.5737Z" fill="white"/>
<path d="M41.5942 18.4579H45.6149V19.6405H44.255V26.7356H42.9541V19.6405H41.5942V18.4579Z" fill="white"/>
<path d="M48.5475 18.4579H49.8483V26.7356H48.5475V18.4579Z" fill="white"/>
<path d="M54.4599 21.9464H56.2455V23.1288H54.4599V25.5532H56.7066V26.7356H53.1591V18.4579H56.7066V19.6405H54.4599V21.9464Z" fill="white"/>
<path d="M61.6259 18.3632C62.8911 18.3632 63.5417 19.1201 63.5417 20.4444V20.7044H62.3119V20.3616C62.3119 19.7704 62.0754 19.5456 61.6613 19.5456C61.2474 19.5456 61.0111 19.7704 61.0111 20.3616C61.0111 22.0645 63.5534 22.3837 63.5534 24.7487C63.5534 26.0732 62.8911 26.8301 61.6143 26.8301C60.337 26.8301 59.6748 26.0732 59.6748 24.7487V24.2404H60.9046V24.8316C60.9046 25.4229 61.1648 25.6357 61.5786 25.6357C61.9925 25.6357 62.2527 25.4229 62.2527 24.8316C62.2527 23.1286 59.7102 22.8094 59.7102 20.4444C59.7102 19.1201 60.3608 18.3632 61.6259 18.3632Z" fill="white"/>
</svg>
