<svg width="33" height="32" viewBox="0 0 33 32" fill="none" xmlns="http://www.w3.org/2000/svg">
<g clip-path="url(#clip0_379_10273)">
<path fill-rule="evenodd" clip-rule="evenodd" d="M2.69983 14.4691C11.2898 10.7266 17.0177 8.25936 19.8837 7.06729C28.0667 3.6637 29.7671 3.07247 30.8753 3.05294C31.1191 3.04865 31.6641 3.10906 32.0171 3.39552C32.3152 3.63741 32.3973 3.96416 32.4365 4.1935C32.4758 4.42283 32.5246 4.94526 32.4858 5.35347C32.0423 10.0127 30.1236 21.3195 29.1474 26.5379C28.7344 28.7461 27.9211 29.4864 27.1337 29.5589C25.4226 29.7163 24.1232 28.428 22.4659 27.3416C19.8725 25.6417 18.4074 24.5834 15.8901 22.9245C12.9809 21.0074 14.8668 19.9537 16.5247 18.2317C16.9586 17.781 24.4979 10.9235 24.6439 10.3014C24.6621 10.2236 24.6791 9.93355 24.5068 9.78041C24.3345 9.62727 24.0802 9.67964 23.8967 9.72129C23.6366 9.78032 19.4936 12.5187 11.4678 17.9363C10.2918 18.7438 9.22666 19.1373 8.27232 19.1166C7.22023 19.0939 5.19644 18.5218 3.69196 18.0327C1.84666 17.4329 0.380043 17.1158 0.507752 16.0971C0.574271 15.5665 1.30496 15.0238 2.69983 14.4691Z" fill="white"/>
</g>
<defs>
<clipPath id="clip0_379_10273">
<rect width="32" height="32" fill="white" transform="translate(0.5)"/>
</clipPath>
</defs>
</svg>
