<svg width="33" height="32" viewBox="0 0 33 32" fill="none" xmlns="http://www.w3.org/2000/svg">
<g clip-path="url(#clip0_379_10267)">
<path d="M16.5 2.77943C20.7722 2.77943 21.2782 2.79568 22.9653 2.87266C24.5253 2.94386 25.3725 3.20451 25.9363 3.42357C26.6831 3.71382 27.2162 4.06059 27.776 4.62045C28.3359 5.18031 28.6827 5.71337 28.9729 6.46014C29.192 7.024 29.4526 7.87119 29.5238 9.43111C29.6008 11.1183 29.6171 11.6243 29.6171 15.8965C29.6171 20.1687 29.6008 20.6747 29.5238 22.3619C29.4526 23.9218 29.192 24.769 28.9729 25.3329C28.6827 26.0797 28.3359 26.6127 27.776 27.1726C27.2162 27.7324 26.6831 28.0792 25.9363 28.3694C25.3725 28.5885 24.5253 28.8492 22.9653 28.9204C21.2784 28.9973 20.7724 29.0136 16.5 29.0136C12.2275 29.0136 11.7215 28.9973 10.0346 28.9204C8.47464 28.8492 7.62745 28.5885 7.06366 28.3694C6.31682 28.0792 5.78376 27.7324 5.2239 27.1726C4.66404 26.6127 4.31727 26.0797 4.02708 25.3329C3.80796 24.769 3.54731 23.9218 3.47611 22.3619C3.39914 20.6747 3.38288 20.1687 3.38288 15.8965C3.38288 11.6243 3.39914 11.1183 3.47611 9.43118C3.54731 7.87119 3.80796 7.024 4.02708 6.46014C4.31727 5.71337 4.66404 5.18031 5.2239 4.62045C5.78376 4.06059 6.31682 3.71382 7.06366 3.42357C7.62745 3.20451 8.47464 2.94386 10.0346 2.87266C11.7218 2.79568 12.2278 2.77943 16.5 2.77943ZM16.5 -0.103516C12.1546 -0.103516 11.6098 -0.0850971 9.90322 -0.00723128C8.20014 0.0705075 7.03711 0.340942 6.01933 0.736495C4.96719 1.14539 4.07491 1.69248 3.18542 2.58197C2.29593 3.47145 1.74884 4.36374 1.33995 5.41588C0.944394 6.43366 0.67396 7.59669 0.596221 9.29977C0.518355 11.0063 0.5 11.5511 0.5 15.8965C0.5 20.2419 0.518355 20.7868 0.596221 22.4933C0.67396 24.1963 0.944394 25.3594 1.33995 26.3772C1.74884 27.4292 2.29593 28.3216 3.18542 29.2111C4.07491 30.1006 4.96719 30.6476 6.01933 31.0565C7.03711 31.4521 8.20014 31.7225 9.90322 31.8003C11.6098 31.8781 12.1546 31.8965 16.5 31.8965C20.8453 31.8965 21.3902 31.8781 23.0967 31.8003C24.7998 31.7225 25.9628 31.4521 26.9806 31.0565C28.0327 30.6476 28.925 30.1006 29.8145 29.2111C30.704 28.3216 31.2511 27.4293 31.66 26.3772C32.0555 25.3594 32.326 24.1963 32.4037 22.4933C32.4816 20.7868 32.5 20.2419 32.5 15.8965C32.5 11.5511 32.4816 11.0063 32.4037 9.29977C32.326 7.59669 32.0555 6.43366 31.66 5.41588C31.2511 4.36374 30.704 3.47145 29.8145 2.58197C28.925 1.69248 28.0327 1.14539 26.9806 0.736495C25.9628 0.340942 24.7998 0.0705075 23.0967 -0.00723128C21.3902 -0.0850971 20.8453 -0.103516 16.5 -0.103516ZM16.5 7.68027C11.9623 7.68027 8.28373 11.3588 8.28373 15.8965C8.28373 20.4342 11.9623 24.1128 16.5 24.1128C21.0377 24.1128 24.7162 20.4342 24.7162 15.8965C24.7162 11.3588 21.0377 7.68027 16.5 7.68027ZM16.5 21.2299C13.5545 21.2299 11.1666 18.842 11.1666 15.8965C11.1666 12.951 13.5545 10.5632 16.5 10.5632C19.4455 10.5632 21.8333 12.951 21.8333 15.8965C21.8333 18.842 19.4455 21.2299 16.5 21.2299ZM26.9608 7.35566C26.9608 8.41606 26.1012 9.2757 25.0408 9.2757C23.9804 9.2757 23.1208 8.41606 23.1208 7.35566C23.1208 6.29526 23.9804 5.43569 25.0408 5.43569C26.1012 5.43569 26.9608 6.29526 26.9608 7.35566Z" fill="white"/>
</g>
<defs>
<clipPath id="clip0_379_10267">
<rect width="32" height="32" fill="white" transform="translate(0.5)"/>
</clipPath>
</defs>
</svg>
