<svg width="33" height="32" viewBox="0 0 33 32" fill="none" xmlns="http://www.w3.org/2000/svg">
<g clip-path="url(#clip0_379_10269)">
<path d="M24.1784 18.2844C24.116 18.2545 21.7831 17.1057 21.3686 16.9565C21.1993 16.8957 21.018 16.8364 20.8252 16.8364C20.5102 16.8364 20.2456 16.9934 20.0394 17.3017C19.8064 17.6481 19.101 18.4728 18.883 18.7191C18.8545 18.7516 18.8157 18.7905 18.7924 18.7905C18.7715 18.7905 18.4105 18.6418 18.3012 18.5943C15.7986 17.5073 13.8991 14.8931 13.6386 14.4523C13.6014 14.3889 13.5999 14.3601 13.5996 14.3601C13.6087 14.3266 13.6929 14.2422 13.7363 14.1987C13.8633 14.073 14.001 13.9073 14.1342 13.7469C14.1973 13.671 14.2604 13.5949 14.3225 13.5233C14.5157 13.2984 14.6017 13.1239 14.7015 12.9217L14.7537 12.8167C14.9973 12.3328 14.7893 11.9245 14.722 11.7927C14.6669 11.6823 13.6818 9.30497 13.5771 9.0552C13.3253 8.4525 12.9925 8.17188 12.53 8.17188C12.4871 8.17188 12.53 8.17187 12.3501 8.17946C12.131 8.18871 10.9377 8.3458 10.4101 8.67837C9.85067 9.0311 8.90417 10.1555 8.90417 12.1328C8.90417 13.9124 10.0335 15.5928 10.5184 16.2318C10.5305 16.2479 10.5526 16.2807 10.5847 16.3276C12.4416 19.0395 14.7565 21.0493 17.1032 21.9867C19.3625 22.8892 20.4323 22.9935 21.0405 22.9935H21.0406C21.2962 22.9935 21.5007 22.9734 21.6812 22.9557L21.7957 22.9448C22.5762 22.8756 24.2913 21.9868 24.6814 20.9027C24.9887 20.0488 25.0698 19.1158 24.8653 18.7772C24.7253 18.5469 24.4839 18.4311 24.1784 18.2844Z" fill="white"/>
<path d="M16.784 -0.103516C8.11743 -0.103516 1.06663 6.8943 1.06663 15.4958C1.06663 18.2778 1.81114 21.001 3.22153 23.3844L0.522002 31.3475C0.471716 31.496 0.509119 31.6601 0.618937 31.7719C0.69821 31.8528 0.805742 31.8965 0.91556 31.8965C0.957638 31.8965 1.00003 31.8901 1.04138 31.877L9.34475 29.2384C11.617 30.4524 14.1851 31.0933 16.7841 31.0933C25.4499 31.0934 32.5 24.0963 32.5 15.4958C32.5 6.8943 25.4499 -0.103516 16.784 -0.103516ZM16.784 27.8439C14.3384 27.8439 11.9697 27.1377 9.93353 25.8016C9.86507 25.7566 9.78559 25.7336 9.70559 25.7336C9.6633 25.7336 9.62091 25.74 9.57966 25.7531L5.42018 27.0753L6.76294 23.1138C6.80637 22.9856 6.78465 22.8442 6.70465 22.7349C5.15411 20.6163 4.33447 18.1131 4.33447 15.4958C4.33447 8.6861 9.9193 3.14594 16.7839 3.14594C23.6477 3.14594 29.2319 8.6861 29.2319 15.4958C29.232 22.3046 23.6479 27.8439 16.784 27.8439Z" fill="white"/>
</g>
<defs>
<clipPath id="clip0_379_10269">
<rect width="32" height="32" fill="white" transform="translate(0.5)"/>
</clipPath>
</defs>
</svg>
